# xmcd
#
# Track frame offsets: 
#        150
#        16803
#        33599
#        55305
#        79524
#        102456
#        118933
#        137604
#        153845
#        174937
#
# Disc length: 2477 seconds
#
# Revision: 0
# Processed by: cddbd v1.5.2PL0 Copyright (c) Steve Scherf et al.
# Submitted via: ExactAudioCopy v1.3
#
DISCID=7609ab0a
DTITLE=Memphis Cradle - Memphis Cradle
DYEAR=2008
DGENRE=Electric Blues
TTITLE0=Sakes Alive
TTITLE1=Cradle Of The Blues
TTITLE2=Shake
TTITLE3=Little Woman Is Alright With Me
TTITLE4=Love Is In Your Eyes
TTITLE5=It's Good To Be The King
TTITLE6=Daddy's Home
TTITLE7=Gonna Call On The Mojo Man
TTITLE8=Karma
TTITLE9=Big, Dumb And Ugly
EXTD=
EXTT0=
EXTT1=
EXTT2=
EXTT3=
EXTT4=
EXTT5=
EXTT6=
EXTT7=
EXTT8=
EXTT9=
PLAYORDER=
